<svg width="148" height="40" viewBox="0 0 148 40" fill="none" xmlns="http://www.w3.org/2000/svg">
<path fill-rule="evenodd" clip-rule="evenodd" d="M4 0C1.79086 0 0 1.79086 0 4V36C0 38.2091 1.79086 40 4 40H143C145.209 40 147 38.2091 147 36V4C147 1.79086 145.209 0 143 0H4ZM1 5C1 2.79086 2.79086 1 5 1H142C144.209 1 146 2.79086 146 5V35C146 37.2091 144.209 39 142 39H5C2.79086 39 1 37.2091 1 35V5Z" fill="#979797"/>
<mask id="mask0_15_1469" style="mask-type:luminance" maskUnits="userSpaceOnUse" x="0" y="0" width="147" height="40">
<path fill-rule="evenodd" clip-rule="evenodd" d="M4 0C1.79086 0 0 1.79086 0 4V36C0 38.2091 1.79086 40 4 40H143C145.209 40 147 38.2091 147 36V4C147 1.79086 145.209 0 143 0H4ZM1 5C1 2.79086 2.79086 1 5 1H142C144.209 1 146 2.79086 146 5V35C146 37.2091 144.209 39 142 39H5C2.79086 39 1 37.2091 1 35V5Z" fill="white"/>
</mask>
<g mask="url(#mask0_15_1469)">
<rect width="147.318" height="40" fill="#424B5A"/>
</g>
<path d="M54.5117 16.184C54.6558 16.448 54.8198 16.776 55.0038 17.168C55.1958 17.552 55.3918 17.972 55.5918 18.428C55.7998 18.876 56.0038 19.336 56.2038 19.808C56.4038 20.28 56.5918 20.724 56.7678 21.14C56.9438 20.724 57.1318 20.28 57.3318 19.808C57.5318 19.336 57.7318 18.876 57.9318 18.428C58.1398 17.972 58.3358 17.552 58.5198 17.168C58.7118 16.776 58.8798 16.448 59.0238 16.184H60.7278C60.8078 16.736 60.8798 17.356 60.9438 18.044C61.0158 18.724 61.0758 19.436 61.1238 20.18C61.1798 20.916 61.2278 21.656 61.2678 22.4C61.3158 23.144 61.3558 23.844 61.3878 24.5H59.5638C59.5398 23.692 59.5078 22.812 59.4678 21.86C59.4278 20.908 59.3678 19.948 59.2878 18.98C59.1438 19.316 58.9838 19.688 58.8078 20.096C58.6318 20.504 58.4558 20.912 58.2798 21.32C58.1118 21.728 57.9478 22.12 57.7878 22.496C57.6278 22.864 57.4918 23.18 57.3798 23.444H56.0718C55.9598 23.18 55.8238 22.864 55.6638 22.496C55.5038 22.12 55.3358 21.728 55.1598 21.32C54.9918 20.912 54.8198 20.504 54.6438 20.096C54.4678 19.688 54.3078 19.316 54.1638 18.98C54.0838 19.948 54.0238 20.908 53.9838 21.86C53.9438 22.812 53.9118 23.692 53.8878 24.5H52.0638C52.0958 23.844 52.1318 23.144 52.1718 22.4C52.2198 21.656 52.2678 20.916 52.3158 20.18C52.3718 19.436 52.4318 18.724 52.4958 18.044C52.5678 17.356 52.6438 16.736 52.7238 16.184H54.5117ZM68.6413 24.5C68.5533 24.212 68.4533 23.916 68.3413 23.612C68.2373 23.308 68.1333 23.004 68.0293 22.7H64.7893C64.6853 23.004 64.5773 23.308 64.4653 23.612C64.3613 23.916 64.2653 24.212 64.1773 24.5H62.2333C62.5453 23.604 62.8413 22.776 63.1213 22.016C63.4013 21.256 63.6733 20.54 63.9373 19.868C64.2093 19.196 64.4733 18.56 64.7293 17.96C64.9933 17.352 65.2653 16.76 65.5453 16.184H67.3333C67.6053 16.76 67.8733 17.352 68.1373 17.96C68.4013 18.56 68.6653 19.196 68.9293 19.868C69.2013 20.54 69.4773 21.256 69.7573 22.016C70.0373 22.776 70.3333 23.604 70.6453 24.5H68.6413ZM66.3973 18.068C66.3573 18.188 66.2973 18.352 66.2173 18.56C66.1373 18.768 66.0453 19.008 65.9413 19.28C65.8373 19.552 65.7213 19.852 65.5933 20.18C65.4733 20.508 65.3493 20.852 65.2213 21.212H67.5853C67.4573 20.852 67.3333 20.508 67.2133 20.18C67.0933 19.852 66.9773 19.552 66.8653 19.28C66.7613 19.008 66.6693 18.768 66.5893 18.56C66.5093 18.352 66.4453 18.188 66.3973 18.068ZM74.2124 23.072C74.4764 23.072 74.6924 23.052 74.8604 23.012C75.0364 22.964 75.1764 22.904 75.2804 22.832C75.3844 22.752 75.4564 22.66 75.4964 22.556C75.5364 22.452 75.5564 22.336 75.5564 22.208C75.5564 21.936 75.4284 21.712 75.1724 21.536C74.9164 21.352 74.4764 21.156 73.8524 20.948C73.5804 20.852 73.3084 20.744 73.0364 20.624C72.7644 20.496 72.5204 20.34 72.3044 20.156C72.0884 19.964 71.9124 19.736 71.7764 19.472C71.6404 19.2 71.5724 18.872 71.5724 18.488C71.5724 18.104 71.6444 17.76 71.7884 17.456C71.9324 17.144 72.1364 16.88 72.4004 16.664C72.6644 16.448 72.9844 16.284 73.3604 16.172C73.7364 16.052 74.1604 15.992 74.6324 15.992C75.1924 15.992 75.6764 16.052 76.0844 16.172C76.4924 16.292 76.8284 16.424 77.0924 16.568L76.5524 18.044C76.3204 17.924 76.0604 17.82 75.7724 17.732C75.4924 17.636 75.1524 17.588 74.7524 17.588C74.3044 17.588 73.9804 17.652 73.7804 17.78C73.5884 17.9 73.4924 18.088 73.4924 18.344C73.4924 18.496 73.5284 18.624 73.6004 18.728C73.6724 18.832 73.7724 18.928 73.9004 19.016C74.0364 19.096 74.1884 19.172 74.3564 19.244C74.5324 19.308 74.7244 19.376 74.9324 19.448C75.3644 19.608 75.7404 19.768 76.0604 19.928C76.3804 20.08 76.6444 20.26 76.8524 20.468C77.0684 20.676 77.2284 20.92 77.3324 21.2C77.4364 21.48 77.4884 21.82 77.4884 22.22C77.4884 22.996 77.2164 23.6 76.6724 24.032C76.1284 24.456 75.3084 24.668 74.2124 24.668C73.8444 24.668 73.5124 24.644 73.2164 24.596C72.9204 24.556 72.6564 24.504 72.4244 24.44C72.2004 24.376 72.0044 24.308 71.8364 24.236C71.6764 24.164 71.5404 24.096 71.4284 24.032L71.9564 22.544C72.2044 22.68 72.5084 22.804 72.8684 22.916C73.2364 23.02 73.6844 23.072 74.2124 23.072ZM82.1808 24.668C81.5968 24.668 81.0928 24.588 80.6688 24.428C80.2448 24.26 79.8928 24.032 79.6128 23.744C79.3408 23.448 79.1368 23.1 79.0008 22.7C78.8728 22.292 78.8088 21.844 78.8088 21.356V16.184H80.6808V21.2C80.6808 21.536 80.7168 21.824 80.7888 22.064C80.8688 22.296 80.9728 22.488 81.1008 22.64C81.2368 22.784 81.3968 22.888 81.5808 22.952C81.7728 23.016 81.9808 23.048 82.2048 23.048C82.6608 23.048 83.0288 22.908 83.3088 22.628C83.5968 22.348 83.7408 21.872 83.7408 21.2V16.184H85.6128V21.356C85.6128 21.844 85.5448 22.292 85.4088 22.7C85.2728 23.108 85.0648 23.46 84.7848 23.756C84.5048 24.044 84.1488 24.268 83.7168 24.428C83.2848 24.588 82.7728 24.668 82.1808 24.668ZM92.3211 24.5C92.1531 24.228 91.9531 23.936 91.7211 23.624C91.4971 23.304 91.2491 22.988 90.9771 22.676C90.7131 22.356 90.4371 22.052 90.1491 21.764C89.8611 21.468 89.5731 21.208 89.2851 20.984V24.5H87.4131V16.184H89.2851V19.328C89.7731 18.816 90.2611 18.284 90.7491 17.732C91.2451 17.172 91.7051 16.656 92.1291 16.184H94.3491C93.7811 16.856 93.2091 17.504 92.6331 18.128C92.0651 18.752 91.4651 19.38 90.8331 20.012C91.4971 20.564 92.1371 21.22 92.7531 21.98C93.3771 22.74 93.9731 23.58 94.5411 24.5H92.3211Z" fill="#424B5A"/>
</svg>
