<svg width="148" height="40" viewBox="0 0 148 40" fill="none" xmlns="http://www.w3.org/2000/svg">
<rect width="147.318" height="40" fill="#349DFD"/>
<path fill-rule="evenodd" clip-rule="evenodd" d="M4 0C1.79086 0 0 1.79086 0 4V36C0 38.2091 1.79086 40 4 40H143C145.209 40 147 38.2091 147 36V4C147 1.79086 145.209 0 143 0H4ZM1 5C1 2.79086 2.79086 1 5 1H142C144.209 1 146 2.79086 146 5V35C146 37.2091 144.209 39 142 39H5C2.79086 39 1 37.2091 1 35V5Z" fill="#979797"/>
<mask id="mask0_15_1468" style="mask-type:luminance" maskUnits="userSpaceOnUse" x="0" y="0" width="147" height="40">
<path fill-rule="evenodd" clip-rule="evenodd" d="M4 0C1.79086 0 0 1.79086 0 4V36C0 38.2091 1.79086 40 4 40H143C145.209 40 147 38.2091 147 36V4C147 1.79086 145.209 0 143 0H4ZM1 5C1 2.79086 2.79086 1 5 1H142C144.209 1 146 2.79086 146 5V35C146 37.2091 144.209 39 142 39H5C2.79086 39 1 37.2091 1 35V5Z" fill="white"/>
</mask>
<g mask="url(#mask0_15_1468)">
<rect width="147.318" height="40" fill="#424B5A"/>
</g>
<path d="M52.1425 22.976C52.2305 22.984 52.3305 22.992 52.4425 23C52.5625 23 52.7025 23 52.8625 23C53.7985 23 54.4905 22.764 54.9385 22.292C55.3945 21.82 55.6225 21.168 55.6225 20.336C55.6225 19.464 55.4065 18.804 54.9745 18.356C54.5425 17.908 53.8585 17.684 52.9225 17.684C52.7945 17.684 52.6625 17.688 52.5265 17.696C52.3905 17.696 52.2625 17.704 52.1425 17.72V22.976ZM57.5545 20.336C57.5545 21.056 57.4425 21.684 57.2185 22.22C56.9945 22.756 56.6745 23.2 56.2585 23.552C55.8505 23.904 55.3505 24.168 54.7585 24.344C54.1665 24.52 53.5025 24.608 52.7665 24.608C52.4305 24.608 52.0385 24.592 51.5905 24.56C51.1425 24.536 50.7025 24.48 50.2705 24.392V16.292C50.7025 16.212 51.1505 16.16 51.6145 16.136C52.0865 16.104 52.4905 16.088 52.8265 16.088C53.5385 16.088 54.1825 16.168 54.7585 16.328C55.3425 16.488 55.8425 16.74 56.2585 17.084C56.6745 17.428 56.9945 17.868 57.2185 18.404C57.4425 18.94 57.5545 19.584 57.5545 20.336ZM64.3815 24.5C64.2935 24.212 64.1935 23.916 64.0815 23.612C63.9775 23.308 63.8735 23.004 63.7695 22.7H60.5295C60.4255 23.004 60.3175 23.308 60.2055 23.612C60.1015 23.916 60.0055 24.212 59.9175 24.5H57.9735C58.2855 23.604 58.5815 22.776 58.8615 22.016C59.1415 21.256 59.4135 20.54 59.6775 19.868C59.9495 19.196 60.2135 18.56 60.4695 17.96C60.7335 17.352 61.0055 16.76 61.2855 16.184H63.0735C63.3455 16.76 63.6135 17.352 63.8775 17.96C64.1415 18.56 64.4055 19.196 64.6695 19.868C64.9415 20.54 65.2175 21.256 65.4975 22.016C65.7775 22.776 66.0735 23.604 66.3855 24.5H64.3815ZM62.1375 18.068C62.0975 18.188 62.0375 18.352 61.9575 18.56C61.8775 18.768 61.7855 19.008 61.6815 19.28C61.5775 19.552 61.4615 19.852 61.3335 20.18C61.2135 20.508 61.0895 20.852 60.9615 21.212H63.3255C63.1975 20.852 63.0735 20.508 62.9535 20.18C62.8335 19.852 62.7175 19.552 62.6055 19.28C62.5015 19.008 62.4095 18.768 62.3295 18.56C62.2495 18.352 62.1855 18.188 62.1375 18.068ZM67.462 24.5V16.184H73.03V17.756H69.334V19.496H72.622V21.068H69.334V24.5H67.462ZM80.7784 16.184V17.78H78.2704V24.5H76.3984V17.78H73.8904V16.184H80.7784ZM86.5651 24.5C86.4771 24.212 86.3771 23.916 86.2651 23.612C86.1611 23.308 86.0571 23.004 85.9531 22.7H82.7131C82.6091 23.004 82.5011 23.308 82.3891 23.612C82.2851 23.916 82.1891 24.212 82.1011 24.5H80.1571C80.4691 23.604 80.7651 22.776 81.0451 22.016C81.3251 21.256 81.5971 20.54 81.8611 19.868C82.1331 19.196 82.3971 18.56 82.6531 17.96C82.9171 17.352 83.1891 16.76 83.4691 16.184H85.2571C85.5291 16.76 85.7971 17.352 86.0611 17.96C86.3251 18.56 86.5891 19.196 86.8531 19.868C87.1251 20.54 87.4011 21.256 87.6811 22.016C87.9611 22.776 88.2571 23.604 88.5691 24.5H86.5651ZM84.3211 18.068C84.2811 18.188 84.2211 18.352 84.1411 18.56C84.0611 18.768 83.9691 19.008 83.8651 19.28C83.7611 19.552 83.6451 19.852 83.5171 20.18C83.3971 20.508 83.2731 20.852 83.1451 21.212H85.5091C85.3811 20.852 85.2571 20.508 85.1371 20.18C85.0171 19.852 84.9011 19.552 84.7891 19.28C84.6851 19.008 84.5931 18.768 84.5131 18.56C84.4331 18.352 84.3691 18.188 84.3211 18.068ZM92.0815 16.088C93.3295 16.088 94.2855 16.312 94.9495 16.76C95.6135 17.2 95.9455 17.888 95.9455 18.824C95.9455 19.408 95.8095 19.884 95.5375 20.252C95.2735 20.612 94.8895 20.896 94.3855 21.104C94.5535 21.312 94.7295 21.552 94.9135 21.824C95.0975 22.088 95.2775 22.368 95.4535 22.664C95.6375 22.952 95.8135 23.256 95.9815 23.576C96.1495 23.888 96.3055 24.196 96.4495 24.5H94.3495C94.1975 24.228 94.0415 23.952 93.8815 23.672C93.7295 23.392 93.5695 23.12 93.4015 22.856C93.2415 22.592 93.0815 22.344 92.9215 22.112C92.7615 21.872 92.6015 21.656 92.4415 21.464H91.5175V24.5H89.6455V16.304C90.0535 16.224 90.4735 16.168 90.9055 16.136C91.3455 16.104 91.7375 16.088 92.0815 16.088ZM92.1895 17.684C92.0535 17.684 91.9295 17.688 91.8175 17.696C91.7135 17.704 91.6135 17.712 91.5175 17.72V19.976H92.0455C92.7495 19.976 93.2535 19.888 93.5575 19.712C93.8615 19.536 94.0135 19.236 94.0135 18.812C94.0135 18.404 93.8575 18.116 93.5455 17.948C93.2415 17.772 92.7895 17.684 92.1895 17.684Z" fill="white"/>
</svg>
